<svg width="32" height="32" viewBox="0 0 32 32" fill="none" xmlns="http://www.w3.org/2000/svg">
<path d="M16 10.6667C22.6274 10.6667 28 8.87583 28 6.66669C28 4.45755 22.6274 2.66669 16 2.66669C9.37258 2.66669 4 4.45755 4 6.66669C4 8.87583 9.37258 10.6667 16 10.6667Z" stroke="url(#paint0_linear_45_243)" stroke-width="2.66667" stroke-linecap="round" stroke-linejoin="round"/>
<path d="M28 16C28 18.2133 22.6667 20 16 20C9.33333 20 4 18.2133 4 16" stroke="url(#paint1_linear_45_243)" stroke-width="2.66667" stroke-linecap="round" stroke-linejoin="round"/>
<path d="M4 6.66669V25.3334C4 27.5467 9.33333 29.3334 16 29.3334C22.6667 29.3334 28 27.5467 28 25.3334V6.66669" stroke="url(#paint2_linear_45_243)" stroke-width="2.66667" stroke-linecap="round" stroke-linejoin="round"/>
<defs>
<linearGradient id="paint0_linear_45_243" x1="4" y1="5.80002" x2="19.4719" y2="10.4232" gradientUnits="userSpaceOnUse">
<stop stop-color="#04FF86"/>
<stop offset="1" stop-color="#006CFF"/>
</linearGradient>
<linearGradient id="paint1_linear_45_243" x1="4" y1="17.5667" x2="16.4181" y2="24.9881" gradientUnits="userSpaceOnUse">
<stop stop-color="#04FF86"/>
<stop offset="1" stop-color="#006CFF"/>
</linearGradient>
<linearGradient id="paint2_linear_45_243" x1="4" y1="15.5445" x2="20.668" y2="17.3023" gradientUnits="userSpaceOnUse">
<stop stop-color="#04FF86"/>
<stop offset="1" stop-color="#006CFF"/>
</linearGradient>
</defs>
</svg>
