<svg width="418" height="328" viewBox="0 0 418 328" fill="none" xmlns="http://www.w3.org/2000/svg">
<g filter="url(#filter0_d_50_295)">
<rect x="63" y="62" width="290" height="200" rx="10" fill="white"/>
<rect x="106" y="98" width="30" height="30" rx="15" fill="url(#paint0_linear_50_295)"/>
<rect x="142" y="103" width="113" height="6" rx="3" fill="url(#paint1_linear_50_295)"/>
<rect x="142" y="117" width="113" height="6" rx="3" fill="url(#paint2_linear_50_295)"/>
<rect x="106" y="191" width="30" height="30" rx="15" fill="url(#paint3_linear_50_295)"/>
<rect x="142" y="196" width="113" height="6" rx="3" fill="url(#paint4_linear_50_295)"/>
<rect x="142" y="210" width="113" height="6" rx="3" fill="url(#paint5_linear_50_295)"/>
<rect width="30" height="30" rx="15" transform="matrix(-1 0 0 1 318 147)" fill="url(#paint6_linear_50_295)"/>
<rect width="113" height="6" rx="3" transform="matrix(-1 0 0 1 282 152)" fill="url(#paint7_linear_50_295)"/>
<rect width="113" height="6" rx="3" transform="matrix(-1 0 0 1 282 166)" fill="url(#paint8_linear_50_295)"/>
</g>
<defs>
<filter id="filter0_d_50_295" x="0" y="0" width="418" height="328" filterUnits="userSpaceOnUse" color-interpolation-filters="sRGB">
<feFlood flood-opacity="0" result="BackgroundImageFix"/>
<feColorMatrix in="SourceAlpha" type="matrix" values="0 0 0 0 0 0 0 0 0 0 0 0 0 0 0 0 0 0 127 0" result="hardAlpha"/>
<feOffset dx="1" dy="2"/>
<feGaussianBlur stdDeviation="32"/>
<feComposite in2="hardAlpha" operator="out"/>
<feColorMatrix type="matrix" values="0 0 0 0 0 0 0 0 0 0 0 0 0 0 0 0 0 0 0.13 0"/>
<feBlend mode="normal" in2="BackgroundImageFix" result="effect1_dropShadow_50_295"/>
<feBlend mode="normal" in="SourceGraphic" in2="effect1_dropShadow_50_295" result="shape"/>
</filter>
<linearGradient id="paint0_linear_50_295" x1="121" y1="98" x2="121" y2="128" gradientUnits="userSpaceOnUse">
<stop stop-color="#F6E6AC"/>
<stop offset="1" stop-color="#FFDC5F"/>
</linearGradient>
<linearGradient id="paint1_linear_50_295" x1="198.5" y1="103" x2="198.5" y2="109" gradientUnits="userSpaceOnUse">
<stop stop-color="#B7D9F0"/>
<stop offset="1" stop-color="#5EB6F2"/>
</linearGradient>
<linearGradient id="paint2_linear_50_295" x1="198.5" y1="117" x2="198.5" y2="123" gradientUnits="userSpaceOnUse">
<stop stop-color="#B7D9F0"/>
<stop offset="1" stop-color="#5EB6F2"/>
</linearGradient>
<linearGradient id="paint3_linear_50_295" x1="121" y1="191" x2="121" y2="221" gradientUnits="userSpaceOnUse">
<stop stop-color="#F6E6AC"/>
<stop offset="1" stop-color="#FFDC5F"/>
</linearGradient>
<linearGradient id="paint4_linear_50_295" x1="198.5" y1="196" x2="198.5" y2="202" gradientUnits="userSpaceOnUse">
<stop stop-color="#B7D9F0"/>
<stop offset="1" stop-color="#5EB6F2"/>
</linearGradient>
<linearGradient id="paint5_linear_50_295" x1="198.5" y1="210" x2="198.5" y2="216" gradientUnits="userSpaceOnUse">
<stop stop-color="#B7D9F0"/>
<stop offset="1" stop-color="#5EB6F2"/>
</linearGradient>
<linearGradient id="paint6_linear_50_295" x1="15" y1="0" x2="15" y2="30" gradientUnits="userSpaceOnUse">
<stop stop-color="#B7D9F0"/>
<stop offset="1" stop-color="#5EB6F2"/>
</linearGradient>
<linearGradient id="paint7_linear_50_295" x1="56.5" y1="0" x2="56.5" y2="6" gradientUnits="userSpaceOnUse">
<stop stop-color="#F6E6AC"/>
<stop offset="1" stop-color="#FFDC5F"/>
</linearGradient>
<linearGradient id="paint8_linear_50_295" x1="56.5" y1="0" x2="56.5" y2="6" gradientUnits="userSpaceOnUse">
<stop stop-color="#F6E6AC"/>
<stop offset="1" stop-color="#FFDC5F"/>
</linearGradient>
</defs>
</svg>
