<svg width="50" height="50" viewBox="0 0 50 50" fill="none" xmlns="http://www.w3.org/2000/svg">
<path d="M43.8662 6.97951L41.7565 9.82338H42.7788C43.513 9.82338 44.1171 10.4275 44.1171 11.1617V28.3921H15.4275C14.6097 28.3921 13.9405 29.0613 13.9405 29.8791C13.9405 30.697 14.6097 31.3661 15.4275 31.3661H44.1078V35.1579C44.1078 35.8921 43.5037 36.4962 42.7695 36.4962H7.23048C6.49628 36.4962 5.89219 35.8921 5.89219 35.1579V31.3568H7.99256C8.81041 31.3568 9.47955 30.6877 9.47955 29.8698C9.47955 29.052 8.81041 28.3829 7.99256 28.3829H5.89219V11.1524C5.89219 10.4182 6.49628 9.81408 7.23048 9.81408H27.4164L29.5353 6.83081H7.23048C4.8513 6.83081 2.91821 8.7639 2.91821 11.1431V35.1487C2.91821 37.5278 4.8513 39.4609 7.23048 39.4609H21.1059L20.2695 42.9739H18.3364C16.4777 42.9739 14.9721 44.4795 14.9721 46.3382V46.3661H12.6022C11.7844 46.3661 11.1152 47.0353 11.1152 47.8531C11.1152 48.671 11.7844 49.3401 12.6022 49.3401H37.4164C38.2342 49.3401 38.9033 48.671 38.9033 47.8531C38.9033 47.0353 38.2342 46.3661 37.4164 46.3661H35.0372V46.3382C35.0372 44.4795 33.5316 42.9739 31.6729 42.9739H29.7398L28.9033 39.4609H42.7788C45.158 39.4609 47.0911 37.5278 47.0911 35.1487V11.1524C47.0818 9.15423 45.7156 7.47207 43.8662 6.97951ZM24.1636 39.4609H25.8364L26.6729 42.9739H23.3271L24.1636 39.4609ZM31.6636 45.9479C31.8773 45.9479 32.0539 46.1245 32.0539 46.3382V46.3661H17.9368V46.3382C17.9368 46.1245 18.1227 45.9479 18.3364 45.9479H31.6636Z" fill="#00F6A3"/>
<path d="M40.5577 1.55199C39.5168 0.789913 38.2528 0.492515 36.9982 0.715563C35.7342 0.938611 34.6562 1.64493 33.9499 2.70441L31.803 5.90144L31.7751 5.94791L29.1915 9.81408L28.448 10.9293L25.632 15.1486C23.6246 15.2323 21.8216 16.0408 20.6878 17.3791C18.9406 19.4144 18.6246 22.5557 19.7305 26.71C19.8606 27.2211 20.251 27.6208 20.7621 27.7602C21.2733 27.8996 21.8123 27.7695 22.1934 27.407C23.2435 26.4033 24.461 26.4683 25.7621 26.5427H25.79C27.1748 26.6078 28.7454 26.6821 30.2324 25.4832C31.8588 24.1635 32.4907 21.9888 31.9052 19.7769C32.7881 18.6988 35.6599 15.1951 37.7881 12.6115C38.1134 12.2211 38.4108 11.8494 38.6896 11.5055L38.9592 11.171L39.1543 10.9293C39.2565 10.8085 39.3495 10.697 39.4331 10.5855C39.6283 10.3438 39.8049 10.1394 39.9443 9.97207C39.9907 9.91631 40.0279 9.86984 40.0744 9.82337L42.1562 6.84939C42.8439 4.94419 42.2119 2.78805 40.5577 1.55199ZM28.2064 23.2713C27.6952 23.6245 26.8681 23.5966 25.9108 23.5594H25.8086C24.6934 23.513 23.448 23.4665 22.1748 23.9498C21.9331 22.3234 22.0354 21.0223 22.4629 20.0743C22.9183 19.0706 23.7268 18.4665 24.935 18.2156C25.2603 18.1505 25.6134 18.1133 25.9201 18.104L28.987 20.381C29.3588 21.6728 29.0986 22.6486 28.2064 23.2713ZM29.9722 17.4256L28.448 16.2918L29.6004 14.5631L31.2919 15.8178L29.9722 17.4256ZM39.0707 6.33824L33.1692 13.5315L31.2454 12.1003L36.4313 4.36798C36.6822 3.98694 37.0725 3.73601 37.5186 3.66166C37.9647 3.58731 38.4201 3.68954 38.7826 3.96835C39.1543 4.22857 39.3774 4.6282 39.4331 5.08359C39.4889 5.53898 39.3588 5.98508 39.0707 6.33824Z" fill="#1176C6"/>
<path d="M10.7713 31.0223C11.0501 31.2454 11.3754 31.3569 11.7099 31.3569C11.7936 31.3569 11.8772 31.3476 11.9516 31.3383L12.0073 31.329C12.3977 31.2454 12.7415 31.0224 12.9553 30.6878C13.1691 30.3625 13.2434 29.9629 13.1691 29.5818C13.0854 29.1915 12.8624 28.8476 12.5278 28.6339C12.2025 28.4201 11.8029 28.3458 11.4218 28.4201C10.7248 28.5595 10.2323 29.1636 10.2323 29.8699C10.223 30.3067 10.4181 30.7342 10.7713 31.0223Z" fill="#00F6A3"/>
</svg>
