<svg width="50" height="50" viewBox="0 0 50 50" fill="none" xmlns="http://www.w3.org/2000/svg">
<path d="M12.5 45.8335C11.25 45.8335 10.4166 45.0002 10.4166 43.7502V35.4168C10.4166 34.1668 11.25 33.3335 12.5 33.3335C13.75 33.3335 14.5833 34.1668 14.5833 35.4168V43.7502C14.5833 45.0002 13.75 45.8335 12.5 45.8335Z" fill="#00F6A3"/>
<path d="M25 45.8334C23.75 45.8334 22.9166 45.0001 22.9166 43.7501V25.0001C22.9166 23.7501 23.75 22.9167 25 22.9167C26.25 22.9167 27.0833 23.7501 27.0833 25.0001V43.7501C27.0833 45.0001 26.25 45.8334 25 45.8334Z" fill="#00F6A3"/>
<path d="M37.5 27.0834C36.25 27.0834 35.4166 26.2501 35.4166 25.0001V6.25008C35.4166 5.00008 36.25 4.16675 37.5 4.16675C38.75 4.16675 39.5833 5.00008 39.5833 6.25008V25.0001C39.5833 26.2501 38.75 27.0834 37.5 27.0834Z" fill="#00F6A3"/>
<path d="M12.5 27.0834C11.25 27.0834 10.4166 26.2501 10.4166 25.0001V6.25008C10.4166 5.00008 11.25 4.16675 12.5 4.16675C13.75 4.16675 14.5833 5.00008 14.5833 6.25008V25.0001C14.5833 26.2501 13.75 27.0834 12.5 27.0834Z" fill="#00F6A3"/>
<path d="M37.5 45.8335C36.25 45.8335 35.4166 45.0002 35.4166 43.7502V35.4168C35.4166 34.1668 36.25 33.3335 37.5 33.3335C38.75 33.3335 39.5833 34.1668 39.5833 35.4168V43.7502C39.5833 45.0002 38.75 45.8335 37.5 45.8335Z" fill="#00F6A3"/>
<path d="M25 16.6667C23.75 16.6667 22.9166 15.8334 22.9166 14.5834V6.25008C22.9166 5.00008 23.75 4.16675 25 4.16675C26.25 4.16675 27.0833 5.00008 27.0833 6.25008V14.5834C27.0833 15.8334 26.25 16.6667 25 16.6667Z" fill="#00F6A3"/>
<path d="M12.5 37.5C8.95833 37.5 6.25 34.7917 6.25 31.25C6.25 27.7083 8.95833 25 12.5 25C16.0417 25 18.75 27.7083 18.75 31.25C18.75 34.7917 16.0417 37.5 12.5 37.5ZM12.5 29.1667C11.25 29.1667 10.4167 30 10.4167 31.25C10.4167 32.5 11.25 33.3333 12.5 33.3333C13.75 33.3333 14.5833 32.5 14.5833 31.25C14.5833 30 13.75 29.1667 12.5 29.1667Z" fill="#1176C6"/>
<path d="M25 25C21.4583 25 18.75 22.2917 18.75 18.75C18.75 15.2083 21.4583 12.5 25 12.5C28.5417 12.5 31.25 15.2083 31.25 18.75C31.25 22.2917 28.5417 25 25 25ZM25 16.6667C23.75 16.6667 22.9167 17.5 22.9167 18.75C22.9167 20 23.75 20.8333 25 20.8333C26.25 20.8333 27.0833 20 27.0833 18.75C27.0833 17.5 26.25 16.6667 25 16.6667Z" fill="#1176C6"/>
<path d="M37.5 37.5C33.9583 37.5 31.25 34.7917 31.25 31.25C31.25 27.7083 33.9583 25 37.5 25C41.0417 25 43.75 27.7083 43.75 31.25C43.75 34.7917 41.0417 37.5 37.5 37.5ZM37.5 29.1667C36.25 29.1667 35.4167 30 35.4167 31.25C35.4167 32.5 36.25 33.3333 37.5 33.3333C38.75 33.3333 39.5833 32.5 39.5833 31.25C39.5833 30 38.75 29.1667 37.5 29.1667Z" fill="#1176C6"/>
</svg>
