<svg width="50" height="50" viewBox="0 0 50 50" fill="none" xmlns="http://www.w3.org/2000/svg">
<path d="M41.0155 22.9688L42.3335 22.2078C42.6004 22.054 42.8343 21.8492 43.022 21.6049C43.2096 21.3607 43.3473 21.0819 43.4271 20.7844C43.5069 20.4869 43.5273 20.1766 43.4871 19.8712C43.4469 19.5658 43.347 19.2714 43.1929 19.0047L39.2866 12.2375C39.1329 11.9706 38.928 11.7367 38.6838 11.549C38.4395 11.3614 38.1607 11.2237 37.8632 11.1439C37.5657 11.0641 37.2554 11.0437 36.95 11.0839C36.6447 11.1241 36.3502 11.2241 36.0835 11.3781L34.7655 12.1383C34.4091 12.3441 34.0048 12.4524 33.5933 12.4523C33.1818 12.4522 32.7775 12.3438 32.4212 12.1379C32.0648 11.932 31.769 11.6359 31.5634 11.2794C31.3578 10.9229 31.2497 10.5186 31.2499 10.107V8.59375C31.2499 7.97215 31.003 7.37601 30.5635 6.93647C30.1239 6.49693 29.5278 6.25 28.9062 6.25H21.0937C20.4721 6.25 19.8759 6.49693 19.4364 6.93647C18.9969 7.37601 18.7499 7.97215 18.7499 8.59375V10.1148C18.7502 10.5264 18.6421 10.9307 18.4365 11.2872C18.2309 11.6438 17.935 11.9398 17.5787 12.1457C17.2224 12.3516 16.8181 12.46 16.4065 12.4601C15.995 12.4602 15.5907 12.3519 15.2343 12.1461L13.9163 11.3852C13.3774 11.0753 12.7376 10.9917 12.1371 11.1528C11.5367 11.3139 11.0246 11.7065 10.7132 12.2445L6.80695 19.0109C6.65289 19.2776 6.5529 19.5721 6.51271 19.8775C6.47252 20.1828 6.49292 20.4931 6.57273 20.7906C6.65254 21.0881 6.79021 21.3669 6.97786 21.6112C7.16551 21.8554 7.39945 22.0603 7.66633 22.2141L8.9843 22.9688C9.3413 23.1743 9.63783 23.4702 9.84402 23.8268C10.0502 24.1834 10.1588 24.5881 10.1588 25C10.1588 25.4119 10.0502 25.8166 9.84402 26.1732C9.63783 26.5298 9.3413 26.8257 8.9843 27.0312L7.66633 27.7922C7.12814 28.1035 6.7354 28.6155 6.57429 29.216C6.41318 29.8165 6.49686 30.4564 6.80695 30.9953L10.7132 37.7617C10.867 38.0286 11.0718 38.2625 11.3161 38.4502C11.5603 38.6378 11.8392 38.7755 12.1366 38.8553C12.4341 38.9351 12.7444 38.9555 13.0498 38.9153C13.3552 38.8751 13.6496 38.7752 13.9163 38.6211L15.2343 37.8609C15.5907 37.6552 15.995 37.5469 16.4065 37.5469C16.8181 37.547 17.2224 37.6554 17.5787 37.8613C17.935 38.0672 18.2309 38.3633 18.4365 38.7198C18.6421 39.0763 18.7502 39.4806 18.7499 39.8922V41.4062C18.7499 42.0279 18.9969 42.624 19.4364 43.0635C19.8759 43.5031 20.4721 43.75 21.0937 43.75H28.9062C29.5278 43.75 30.1239 43.5031 30.5635 43.0635C31.003 42.624 31.2499 42.0279 31.2499 41.4062V39.8852C31.2497 39.4736 31.3578 39.0693 31.5634 38.7128C31.769 38.3563 32.0648 38.0602 32.4212 37.8543C32.7775 37.6484 33.1818 37.54 33.5933 37.5399C34.0048 37.5398 34.4091 37.6481 34.7655 37.8539L36.0843 38.6148C36.6233 38.9243 37.263 39.0076 37.8633 38.8466C38.4636 38.6855 38.9757 38.2932 39.2874 37.7555L43.1937 30.9891C43.3477 30.7224 43.4477 30.4279 43.4879 30.1225C43.5281 29.8172 43.5077 29.5069 43.4279 29.2094C43.3481 28.9119 43.2104 28.6331 43.0228 28.3888C42.8351 28.1446 42.6012 27.9397 42.3343 27.7859L41.0155 27.0312C40.6585 26.8257 40.362 26.5298 40.1558 26.1732C39.9496 25.8166 39.8411 25.4119 39.8411 25C39.8411 24.5881 39.9496 24.1834 40.1558 23.8268C40.362 23.4702 40.6585 23.1743 41.0155 22.9688ZM39.453 20.2625C38.6218 20.7425 37.9315 21.4329 37.4515 22.2642C36.9716 23.0955 36.7189 24.0385 36.7189 24.9984C36.7189 25.9584 36.9716 26.9014 37.4515 27.7327C37.9315 28.564 38.6218 29.2544 39.453 29.7344L40.0945 30.1047L36.9695 35.5172L36.3288 35.1477C35.4974 34.6674 34.5541 34.4146 33.5939 34.4145C32.6337 34.4145 31.6904 34.6673 30.8589 35.1474C30.0274 35.6276 29.3369 36.3183 28.857 37.1499C28.3771 37.9816 28.1246 38.925 28.1249 39.8852V40.625H21.8749V39.8852C21.8749 38.9252 21.6222 37.9822 21.1422 37.1508C20.6622 36.3195 19.9718 35.6292 19.1405 35.1492C18.3091 34.6692 17.3661 34.4165 16.4061 34.4165C15.4462 34.4165 14.5031 34.6692 13.6718 35.1492L13.0312 35.5188L9.90617 30.1062L10.5476 29.7359C11.3789 29.2559 12.0692 28.5656 12.5491 27.7343C13.029 26.9029 13.2817 25.9599 13.2817 25C13.2817 24.0401 13.029 23.0971 12.5491 22.2657C12.0692 21.4344 11.3789 20.7441 10.5476 20.2641L9.90617 19.8938L13.0312 14.4812L13.6718 14.8508C14.5031 15.3308 15.4462 15.5834 16.4061 15.5835C17.3661 15.5835 18.3091 15.3308 19.1405 14.8508C19.9718 14.3708 20.6622 13.6805 21.1422 12.8492C21.6222 12.0178 21.8749 11.0748 21.8749 10.1148V9.375H28.1249V10.1148C28.1249 11.0748 28.3777 12.0178 28.8576 12.8492C29.3376 13.6805 30.028 14.3708 30.8594 14.8508C31.6907 15.3308 32.6338 15.5835 33.5937 15.5835C34.5537 15.5834 35.4967 15.3308 36.328 14.8508L36.9687 14.4812L40.0937 19.8938L39.453 20.2625Z" fill="#00F6A3"/>
<path d="M25 16.4062C23.3003 16.4062 21.6388 16.9103 20.2256 17.8546C18.8123 18.7989 17.7109 20.141 17.0604 21.7113C16.41 23.2816 16.2398 25.0095 16.5714 26.6766C16.903 28.3436 17.7214 29.8748 18.9233 31.0767C20.1252 32.2786 21.6564 33.097 23.3234 33.4286C24.9905 33.7602 26.7184 33.59 28.2887 32.9396C29.859 32.2891 31.2012 31.1877 32.1454 29.7744C33.0897 28.3612 33.5938 26.6997 33.5938 25C33.5911 22.7216 32.6848 20.5373 31.0737 18.9263C29.4627 17.3152 27.2784 16.4089 25 16.4062ZM25 30.4688C23.9184 30.4688 22.8611 30.148 21.9617 29.5471C21.0624 28.9462 20.3615 28.0921 19.9475 27.0928C19.5336 26.0935 19.4253 24.9939 19.6363 23.9331C19.8473 22.8723 20.3682 21.8978 21.133 21.133C21.8978 20.3682 22.8723 19.8473 23.9331 19.6363C24.9939 19.4253 26.0935 19.5336 27.0928 19.9475C28.0921 20.3614 28.9462 21.0624 29.5471 21.9617C30.148 22.8611 30.4688 23.9184 30.4688 25C30.4671 26.4499 29.8904 27.8399 28.8652 28.8652C27.8399 29.8904 26.4499 30.4671 25 30.4688Z" fill="#1176C6"/>
</svg>
