<svg width="80" height="14" viewBox="0 0 80 14" fill="none" xmlns="http://www.w3.org/2000/svg">
<path d="M69.7828 13.9982C69.5931 13.9982 69.4043 13.9337 69.2449 13.8067C68.9617 13.5809 68.8206 13.1988 68.8802 12.8197L69.4759 8.98848L66.9439 6.2824C66.6946 6.01418 66.6039 5.61388 66.7111 5.24899C66.8183 4.88395 67.106 4.61791 67.4516 4.56145L70.9429 4.00291L72.5071 0.516469C72.815 -0.172156 73.8423 -0.172156 74.1502 0.516469L75.7153 4.00384L79.215 4.56238C79.5604 4.61791 79.8473 4.88396 79.9555 5.24992C80.0627 5.61496 79.9729 6.0162 79.7226 6.28333L77.1906 8.98941L77.7872 12.8206C77.8458 13.1987 77.7046 13.5809 77.4233 13.8067C77.1402 14.0336 76.7654 14.0628 76.4583 13.8833L73.329 12.0735L70.2106 13.8833C70.076 13.9598 69.9294 13.9982 69.7828 13.9982ZM73.3293 9.92491C73.4759 9.92491 73.6215 9.96327 73.7554 10.0409L75.6688 11.1469L75.3049 8.80581C75.2536 8.4782 75.3526 8.14441 75.5688 7.91255L77.1121 6.26306L74.9769 5.92231C74.6782 5.87498 74.4206 5.66817 74.2869 5.37088L73.3302 3.23957L72.3745 5.36995C72.2407 5.6674 71.9833 5.87405 71.6845 5.92138L69.5585 6.26121L71.1018 7.91069C71.318 8.14163 71.417 8.47635 71.3657 8.80396L71.0028 11.1421L72.9034 10.0391C73.035 9.96327 73.1816 9.92491 73.3293 9.92491Z" fill="#FF9E57"/>
<path fill-rule="evenodd" clip-rule="evenodd" d="M9.78991 13.8839C9.92374 13.9616 10.0704 14 10.216 14C10.4056 14 10.5953 13.9344 10.7565 13.8083C11.0387 13.5815 11.1798 13.1993 11.1212 12.8212L10.5247 8.98952L13.0555 6.28312C13.3058 6.01596 13.3964 5.61468 13.2883 5.2496C13.1802 4.88359 12.8933 4.61736 12.5479 4.56198L9.0485 4.00337L7.48345 0.516529C7.1746 -0.172176 6.14936 -0.172176 5.84051 0.516529L4.27545 4.00337L0.784334 4.56198C0.438933 4.61844 0.152154 4.88452 0.0448927 5.2496C-0.0632119 5.61453 0.0276016 6.01488 0.27769 6.28312L2.80852 8.98952L2.21205 12.8212C2.15342 13.1993 2.29442 13.5824 2.57671 13.8083C2.85885 14.0321 3.23461 14.0634 3.54248 13.8839L6.66163 12.074L9.78991 13.8839Z" fill="#FF9E57"/>
<path fill-rule="evenodd" clip-rule="evenodd" d="M26.4567 13.8839C26.5905 13.9616 26.7371 14 26.8828 14C27.0724 14 27.262 13.9344 27.4233 13.8083C27.7054 13.5815 27.8466 13.1993 27.7879 12.8212L27.1915 8.98952L29.7223 6.28312C29.9725 6.01596 30.0632 5.61468 29.9551 5.2496C29.847 4.88359 29.5601 4.61736 29.2147 4.56198L25.7153 4.00337L24.1502 0.516529C23.8413 -0.172176 22.8161 -0.172176 22.5073 0.516529L20.9422 4.00337L17.4511 4.56198C17.1057 4.61844 16.8189 4.88452 16.7116 5.2496C16.6035 5.61453 16.6943 6.01488 16.9444 6.28312L19.4753 8.98952L18.8788 12.8212C18.8202 13.1993 18.9612 13.5824 19.2435 13.8083C19.5256 14.0321 19.9014 14.0634 20.2092 13.8839L23.3284 12.074L26.4567 13.8839Z" fill="#FF9E57"/>
<path fill-rule="evenodd" clip-rule="evenodd" d="M43.1233 13.8839C43.2571 13.9616 43.4037 14 43.5494 14C43.739 14 43.9287 13.9344 44.0899 13.8083C44.372 13.5815 44.5132 13.1993 44.4546 12.8212L43.8581 8.98952L46.3889 6.28312C46.6391 6.01596 46.7298 5.61468 46.6217 5.2496C46.5136 4.88359 46.2267 4.61736 45.8813 4.56198L42.3819 4.00337L40.8168 0.516529C40.508 -0.172176 39.4827 -0.172176 39.1739 0.516529L37.6088 4.00337L34.1177 4.56198C33.7723 4.61844 33.4855 4.88452 33.3783 5.2496C33.2702 5.61453 33.361 6.01488 33.6111 6.28312L36.1419 8.98952L35.5454 12.8212C35.4868 13.1993 35.6278 13.5824 35.9101 13.8083C36.1922 14.0321 36.568 14.0634 36.8759 13.8839L39.995 12.074L43.1233 13.8839Z" fill="#FF9E57"/>
<path fill-rule="evenodd" clip-rule="evenodd" d="M59.79 13.8839C59.9239 13.9616 60.0705 14 60.2161 14C60.4058 14 60.5954 13.9344 60.7566 13.8083C61.0388 13.5815 61.1799 13.1993 61.1213 12.8212L60.5248 8.98952L63.0557 6.28312C63.3059 6.01596 63.3966 5.61468 63.2885 5.2496C63.1804 4.88359 62.8934 4.61736 62.548 4.56198L59.0486 4.00337L57.4836 0.516529C57.1747 -0.172176 56.1495 -0.172176 55.8406 0.516529L54.2756 4.00337L50.7845 4.56198C50.4391 4.61844 50.1523 4.88452 50.045 5.2496C49.9369 5.61453 50.0277 6.01488 50.2778 6.28312L52.8086 8.98952L52.2122 12.8212C52.1535 13.1993 52.2945 13.5824 52.5768 13.8083C52.859 14.0321 53.2347 14.0634 53.5426 13.8839L56.6617 12.074L59.79 13.8839Z" fill="#FF9E57"/>
</svg>
